<svg width="44" height="44" viewBox="0 0 44 44" fill="none" xmlns="http://www.w3.org/2000/svg">
<path d="M43.5625 3.24965V14.4996C43.5625 14.7483 43.4637 14.9867 43.2879 15.1626C43.1121 15.3384 42.8736 15.4371 42.625 15.4371H31.375C31.1264 15.4371 30.8879 15.3384 30.7121 15.1626C30.5363 14.9867 30.4375 14.7483 30.4375 14.4996C30.4375 14.251 30.5363 14.0126 30.7121 13.8367C30.8879 13.6609 31.1264 13.5621 31.375 13.5621H40.3609L35.3336 8.53246C31.6697 4.86893 26.7093 2.79741 21.5281 2.76714C16.347 2.73686 11.3627 4.75027 7.65625 8.37074C7.56822 8.45692 7.46408 8.52492 7.34978 8.57086C7.23547 8.61679 7.11324 8.63976 6.99006 8.63845C6.86687 8.63715 6.74515 8.61159 6.63185 8.56324C6.51854 8.5149 6.41587 8.44471 6.32969 8.35668C6.24351 8.26865 6.17551 8.16452 6.12958 8.05021C6.08364 7.9359 6.06067 7.81367 6.06198 7.69049C6.06328 7.5673 6.08884 7.44559 6.13719 7.33228C6.18553 7.21897 6.25572 7.1163 6.34375 7.03012C10.4034 3.06474 15.8625 0.859606 21.5374 0.892951C27.2122 0.926296 32.6451 3.19543 36.6578 7.20824L41.6875 12.2356V3.24965C41.6875 3.00101 41.7863 2.76255 41.9621 2.58674C42.1379 2.41092 42.3764 2.31215 42.625 2.31215C42.8736 2.31215 43.1121 2.41092 43.2879 2.58674C43.4637 2.76255 43.5625 3.00101 43.5625 3.24965ZM36.3438 35.6286C32.6746 39.2323 27.7335 41.2456 22.5906 41.2325H22.4805C17.2938 41.2166 12.3254 39.1429 8.66641 35.4668L3.63906 30.4371H12.625C12.8736 30.4371 13.1121 30.3384 13.2879 30.1626C13.4637 29.9867 13.5625 29.7483 13.5625 29.4996C13.5625 29.251 13.4637 29.0126 13.2879 28.8367C13.1121 28.6609 12.8736 28.5621 12.625 28.5621H1.375C1.12636 28.5621 0.887903 28.6609 0.712088 28.8367C0.536272 29.0126 0.4375 29.251 0.4375 29.4996V40.7496C0.4375 40.9983 0.536272 41.2367 0.712088 41.4126C0.887903 41.5884 1.12636 41.6871 1.375 41.6871C1.62364 41.6871 1.8621 41.5884 2.03791 41.4126C2.21373 41.2367 2.3125 40.9983 2.3125 40.7496V31.7637L7.34219 36.7911C11.348 40.8181 16.7887 43.09 22.4688 43.1075H22.5883C28.2217 43.1207 33.6338 40.9156 37.6539 36.9692C37.7419 36.883 37.8121 36.7803 37.8605 36.667C37.9088 36.5537 37.9344 36.432 37.9357 36.3088C37.937 36.1856 37.914 36.0634 37.8681 35.9491C37.8221 35.8348 37.7542 35.7306 37.668 35.6426C37.5818 35.5546 37.4791 35.4844 37.3658 35.4361C37.2525 35.3877 37.1308 35.3622 37.0076 35.3608C36.8844 35.3595 36.7622 35.3825 36.6479 35.4284C36.5336 35.4744 36.4294 35.5424 36.3414 35.6286H36.3438Z" fill="white"/>
</svg>
