<svg width="46" height="44" viewBox="0 0 46 44" fill="none" xmlns="http://www.w3.org/2000/svg">
<path d="M22.9367 10.7499V21.4702L31.857 26.821C32.0702 26.949 32.2239 27.1565 32.2841 27.3978C32.3443 27.6391 32.3062 27.8945 32.1781 28.1077C32.0501 28.3209 31.8426 28.4745 31.6013 28.5347C31.36 28.5949 31.1046 28.5568 30.8914 28.4288L21.5164 22.8038C21.3777 22.7204 21.2629 22.6026 21.1832 22.4617C21.1035 22.3208 21.0617 22.1617 21.0617 21.9999V10.7499C21.0617 10.5012 21.1605 10.2628 21.3363 10.087C21.5121 9.91115 21.7506 9.81238 21.9992 9.81238C22.2479 9.81238 22.4863 9.91115 22.6621 10.087C22.8379 10.2628 22.9367 10.5012 22.9367 10.7499ZM44.4992 6.06238C44.2506 6.06238 44.0121 6.16115 43.8363 6.33697C43.6605 6.51278 43.5617 6.75124 43.5617 6.99988V13.7616C41.5297 11.3264 39.5773 9.10925 37.2453 6.7655C34.2478 3.77019 30.4342 1.72451 26.2808 0.883991C22.1274 0.0434749 17.8185 0.445394 13.8922 2.03954C9.96594 3.63369 6.59642 6.34939 4.20459 9.84739C1.81275 13.3454 0.504629 17.4706 0.44364 21.7077C0.382652 25.9449 1.5715 30.106 3.86167 33.6714C6.15183 37.2368 9.44179 40.0484 13.3206 41.7549C17.1993 43.4614 21.4949 43.9871 25.6708 43.2665C29.8466 42.5459 33.7175 40.6108 36.8 37.703C36.8896 37.6184 36.9616 37.5169 37.0119 37.4044C37.0623 37.292 37.09 37.1707 37.0935 37.0475C37.097 36.9243 37.0762 36.8016 37.0322 36.6865C36.9883 36.5714 36.9221 36.466 36.8375 36.3764C36.7529 36.2869 36.6514 36.2149 36.5389 36.1645C36.4265 36.1141 36.3052 36.0864 36.182 36.083C36.0588 36.0795 35.9361 36.1003 35.821 36.1442C35.7059 36.1881 35.6005 36.2543 35.5109 36.3389C32.6969 38.9947 29.1626 40.7624 25.3497 41.4211C21.5368 42.0798 17.6143 41.6003 14.0723 40.0425C10.5304 38.4848 7.52596 35.9178 5.4345 32.6623C3.34303 29.4069 2.25725 25.6073 2.31279 21.7383C2.36834 17.8693 3.56276 14.1025 5.74681 10.9084C7.93087 7.71435 11.0077 5.23469 14.593 3.77925C18.1782 2.32381 22.1128 1.95712 25.9052 2.725C29.6977 3.49288 33.1797 5.36128 35.9164 8.09675C38.3352 10.5155 40.3719 12.8593 42.5141 15.4374H35.1242C34.8756 15.4374 34.6371 15.5362 34.4613 15.712C34.2855 15.8878 34.1867 16.1262 34.1867 16.3749C34.1867 16.6235 34.2855 16.862 34.4613 17.0378C34.6371 17.2136 34.8756 17.3124 35.1242 17.3124H44.4992C44.7479 17.3124 44.9863 17.2136 45.1621 17.0378C45.338 16.862 45.4367 16.6235 45.4367 16.3749V6.99988C45.4367 6.75124 45.338 6.51278 45.1621 6.33697C44.9863 6.16115 44.7479 6.06238 44.4992 6.06238Z" fill="white"/>
</svg>
