<svg width="44" height="44" viewBox="0 0 44 44" fill="none" xmlns="http://www.w3.org/2000/svg">
<path d="M17.1875 42.625C17.1875 42.8736 17.0887 43.1121 16.9129 43.2879C16.7371 43.4637 16.4986 43.5625 16.25 43.5625H1.25C1.00136 43.5625 0.762903 43.4637 0.587088 43.2879C0.411272 43.1121 0.3125 42.8736 0.3125 42.625V1.375C0.3125 1.12636 0.411272 0.887903 0.587088 0.712088C0.762903 0.536272 1.00136 0.4375 1.25 0.4375H16.25C16.4986 0.4375 16.7371 0.536272 16.9129 0.712088C17.0887 0.887903 17.1875 1.12636 17.1875 1.375C17.1875 1.62364 17.0887 1.8621 16.9129 2.03791C16.7371 2.21373 16.4986 2.3125 16.25 2.3125H2.1875V41.6875H16.25C16.4986 41.6875 16.7371 41.7863 16.9129 41.9621C17.0887 42.1379 17.1875 42.3764 17.1875 42.625ZM43.1633 21.3367L33.7883 11.9617C33.6124 11.7858 33.3738 11.687 33.125 11.687C32.8762 11.687 32.6376 11.7858 32.4617 11.9617C32.2858 12.1376 32.187 12.3762 32.187 12.625C32.187 12.8738 32.2858 13.1124 32.4617 13.2883L40.2359 21.0625H16.25C16.0014 21.0625 15.7629 21.1613 15.5871 21.3371C15.4113 21.5129 15.3125 21.7514 15.3125 22C15.3125 22.2486 15.4113 22.4871 15.5871 22.6629C15.7629 22.8387 16.0014 22.9375 16.25 22.9375H40.2359L32.4617 30.7117C32.2858 30.8876 32.187 31.1262 32.187 31.375C32.187 31.6238 32.2858 31.8624 32.4617 32.0383C32.6376 32.2142 32.8762 32.313 33.125 32.313C33.3738 32.313 33.6124 32.2142 33.7883 32.0383L43.1633 22.6633C43.2504 22.5762 43.3196 22.4728 43.3668 22.359C43.414 22.2452 43.4382 22.1232 43.4382 22C43.4382 21.8768 43.414 21.7548 43.3668 21.641C43.3196 21.5272 43.2504 21.4238 43.1633 21.3367Z" fill="white"/>
</svg>
