<svg width="48" height="44" viewBox="0 0 48 44" fill="none" xmlns="http://www.w3.org/2000/svg">
<path d="M42.6328 36.7109C43.8064 35.9308 44.6977 34.7936 45.1749 33.4676C45.652 32.1416 45.6897 30.6973 45.2822 29.3482C44.8747 27.9992 44.0438 26.8171 42.9124 25.977C41.781 25.1368 40.4092 24.6832 39 24.6832C37.5908 24.6832 36.219 25.1368 35.0876 25.977C33.9562 26.8171 33.1253 27.9992 32.7178 29.3482C32.3103 30.6973 32.348 32.1416 32.8251 33.4676C33.3023 34.7936 34.1936 35.9308 35.3672 36.7109C34.2074 37.222 33.1767 37.9861 32.3506 38.9472C31.5245 39.9084 30.9239 41.0422 30.593 42.2656C30.5293 42.5059 30.5637 42.7616 30.6885 42.9765C30.8134 43.1914 31.0184 43.3479 31.2586 43.4117C31.3349 43.4333 31.4137 43.4444 31.493 43.4445C31.7007 43.4444 31.9025 43.3752 32.0666 43.248C32.2308 43.1207 32.3481 42.9425 32.4 42.7414C33.1711 39.8398 35.8805 37.8195 38.993 37.8195C42.1055 37.8195 44.8148 39.8469 45.5859 42.7414C45.6148 42.8632 45.6678 42.978 45.7418 43.079C45.8158 43.18 45.9092 43.2652 46.0166 43.3295C46.1241 43.3938 46.2433 43.4359 46.3673 43.4534C46.4912 43.4709 46.6174 43.4634 46.7385 43.4313C46.8595 43.3992 46.9728 43.3432 47.0718 43.2666C47.1709 43.1899 47.2535 43.0943 47.315 42.9852C47.3764 42.8761 47.4154 42.7558 47.4296 42.6314C47.4438 42.507 47.4329 42.3811 47.3977 42.2609C47.0674 41.0392 46.4681 39.9067 45.6437 38.9464C44.8192 37.9861 43.7905 37.2223 42.6328 36.7109ZM34.3125 31.25C34.3125 30.3229 34.5874 29.4166 35.1025 28.6458C35.6176 27.8749 36.3496 27.2741 37.2062 26.9193C38.0627 26.5645 39.0052 26.4717 39.9145 26.6526C40.8238 26.8334 41.659 27.2799 42.3146 27.9354C42.9701 28.591 43.4166 29.4262 43.5974 30.3355C43.7783 31.2448 43.6855 32.1873 43.3307 33.0438C42.9759 33.9004 42.3751 34.6324 41.6042 35.1475C40.8334 35.6626 39.9271 35.9375 39 35.9375C37.7568 35.9375 36.5645 35.4436 35.6854 34.5646C34.8064 33.6855 34.3125 32.4932 34.3125 31.25ZM44.625 7.8125H24.3891L17.7117 1.13516C17.1844 0.608419 16.4696 0.312535 15.7242 0.3125H3.375C2.62908 0.3125 1.91371 0.608816 1.38626 1.13626C0.858816 1.66371 0.5625 2.37908 0.5625 3.125V37.018C0.563119 37.7254 0.84425 38.4037 1.34424 38.9041C1.84424 39.4045 2.52228 39.6863 3.22969 39.6875H22.2562C22.5049 39.6875 22.7433 39.5887 22.9192 39.4129C23.095 39.2371 23.1937 38.9986 23.1937 38.75C23.1937 38.5014 23.095 38.2629 22.9192 38.0871C22.7433 37.9113 22.5049 37.8125 22.2562 37.8125H3.22969C3.01937 37.8119 2.81788 37.7279 2.66938 37.579C2.52089 37.43 2.4375 37.2283 2.4375 37.018V9.6875H44.625C44.8736 9.6875 45.1121 9.78627 45.2879 9.96209C45.4637 10.1379 45.5625 10.3764 45.5625 10.625V18.125C45.5625 18.3736 45.6613 18.6121 45.8371 18.7879C46.0129 18.9637 46.2514 19.0625 46.5 19.0625C46.7486 19.0625 46.9871 18.9637 47.1629 18.7879C47.3387 18.6121 47.4375 18.3736 47.4375 18.125V10.625C47.4375 9.87908 47.1412 9.16371 46.6137 8.63626C46.0863 8.10882 45.3709 7.8125 44.625 7.8125ZM3.375 2.1875H15.7242C15.9721 2.18793 16.2098 2.28652 16.3852 2.46172L21.7359 7.8125H2.4375V3.125C2.4375 2.87636 2.53627 2.6379 2.71209 2.46209C2.8879 2.28627 3.12636 2.1875 3.375 2.1875Z" fill="white"/>
</svg>
